# xmcd
#
# Track frame offsets: 
#        150
#        15281
#        27336
#        43217
#        54120
#        63698
#        68141
#        90303
#        98697
#        114941
#        135983
#        154391
#        172973
#
# Disc length: 2636 seconds
#
# Revision: 0
# Processed by: cddbd v1.5.2PL0 Copyright (c) Steve Scherf et al.
# Submitted via: ExactAudioCopy v0.99pb4
#
DISCID=990a4a0d
DTITLE=Daniel Lohues - Allennig
DYEAR=2006
DGENRE=Pop-Folk
TTITLE0=Allennig
TTITLE1=Anders wa'k der bleben
TTITLE2=Beste Koningin
TTITLE3=Moordlied
TTITLE4=Pries de dag nie
TTITLE5=Ha'k mar 'n gitaar
TTITLE6=Annelie
TTITLE7=Deurrieden tot an de streep
TTITLE8=Anja de vreemdgangster
TTITLE9=De kerke
TTITLE10=H.Christoffel
TTITLE11=De Ganzenkoning
TTITLE12=Erica
EXTD=
EXTT0=
EXTT1=
EXTT2=
EXTT3=
EXTT4=
EXTT5=
EXTT6=
EXTT7=
EXTT8=
EXTT9=
EXTT10=
EXTT11=
EXTT12=
PLAYORDER=
